<svg width="1147" height="583" viewBox="0 0 1147 583" fill="none" xmlns="http://www.w3.org/2000/svg">
<path fill-rule="evenodd" clip-rule="evenodd" d="M67.026 44.71C66.595 19.931 38.2966 4.57874 24.2013 0C45.3174 21.547 32.9997 56.7405 24.2013 71.6438L67.026 44.71ZM65.9492 52.7902L20.9699 81.0707C26.1412 86.4574 25.2793 91.0362 24.2019 92.6522C3.18876 136.159 -0.667289 166.661 5.61813 187.629C1.98529 197.397 0 207.967 0 219V493C0 542.705 40.2944 583 90 583H1057C1106.71 583 1147 542.705 1147 493V219C1147 169.294 1106.71 129 1057 129H122.648C122.266 118.349 114.674 109.384 108.506 104.771C114.162 118.507 100.964 136.284 88.3053 143.556C78.1782 149.373 76.0056 161.422 76.1851 166.719C79.6327 209.813 123.05 203.887 144.328 195.538C145.189 202.433 137.145 212.416 133.015 216.546C143.52 210.351 153.754 192.036 147.829 187.996C143.089 184.764 144.058 181.263 145.136 179.916C142.442 181.353 137.863 184.764 141.095 186.919C144.328 189.074 144.238 191.228 143.789 192.036C130.645 201.302 118.381 198.052 113.892 195.269C91.699 181.048 101.054 161.871 108.506 154.06C115.757 148.332 119.761 142.541 121.534 137H1057C1102.29 137 1139 173.712 1139 219V493C1139 538.287 1102.29 575 1057 575H90C44.7127 575 8 538.287 8 493V219C8 212.084 8.85613 205.368 10.4682 198.953C29.078 231.182 77.9342 232.851 112.006 226.244C50.1661 227.321 32.3718 196.168 31.2047 180.456C28.8345 140.81 53.3802 95.5251 65.9492 77.8386C74.1371 71.59 73.3111 64.6411 71.8747 61.9477L65.9492 52.7902ZM83.1873 71.6428C95.3075 80.6207 112.276 105.579 83.1873 133.59C54.0988 161.602 67.1168 186.56 77.2619 195.538C85.0726 204.157 108.882 217.031 141.634 199.578C131.937 211.339 103.011 229.475 64.8723 207.928C51.3156 198.052 30.1277 167.742 52.7521 124.433C56.3432 118.777 65.2493 105.31 73.2218 97.7685C81.1942 90.2271 83.1873 77.2091 83.1873 71.6428Z" fill="url(#paint0_linear)"/>
<defs>
<linearGradient id="paint0_linear" x1="141.587" y1="37.7073" x2="110.344" y2="215.201" gradientUnits="userSpaceOnUse">
<stop stop-color="#F8DE8E"/>
<stop offset="1" stop-color="#E6B515"/>
</linearGradient>
</defs>
</svg>
