<svg width="60" height="94" viewBox="0 0 60 94" fill="none" xmlns="http://www.w3.org/2000/svg">
<rect x="10" y="42" width="29" height="45" fill="black"/>
<path fill-rule="evenodd" clip-rule="evenodd" d="M8.72154 0C14.4867 1.87275 26.061 8.15198 26.2373 18.2869L8.72154 29.3031C12.3202 23.2074 17.3582 8.81295 8.72154 0ZM7.39998 33.1587L25.797 21.5917L28.2206 25.3372C28.8081 26.4388 29.146 29.281 25.797 31.8368C20.6561 39.0707 10.6167 57.5926 11.5861 73.8085C12.0635 80.2346 19.3415 92.9766 44.6347 92.536C21.721 96.9792 -17.5407 92.2716 8.72193 37.8957C9.16258 37.2347 9.5151 35.3619 7.39998 33.1587ZM32.8474 54.6403C44.7449 43.1834 37.8047 32.9751 32.8474 29.303C32.8474 31.5797 32.0322 36.9042 28.7714 39.9887C25.5106 43.0733 21.8679 48.5814 20.3991 50.8948C11.1455 68.6088 19.8116 81.0057 25.3564 85.045C40.9553 93.8579 52.7867 86.4404 56.7525 81.63C43.3568 88.7684 33.6185 83.5027 30.4238 79.9775C26.2744 76.3055 20.9499 66.0971 32.8474 54.6403ZM43.203 42.8528C47.5727 46.1209 53.6904 54.7282 43.203 63.0124C40.1552 66.2071 36.3289 74.0506 45.4062 79.8672C47.2422 81.0055 52.2583 82.3348 57.6342 78.5452C57.8178 78.2148 57.8545 77.3335 56.5326 76.4522C55.2106 75.5709 57.0834 74.1755 58.185 73.5879C57.7444 74.1388 57.3478 75.5709 59.2866 76.8928C61.7102 78.5452 57.524 86.0362 53.2277 88.57C54.9169 86.8808 58.207 82.7975 57.8545 79.9773C49.1517 83.3924 31.3936 85.8159 29.9835 68.19C29.9101 66.0235 30.7987 61.0956 34.9408 58.7161C40.1184 55.7417 45.5164 48.471 43.203 42.8528Z" fill="url(#paint0_linear)"/>
<defs>
<linearGradient id="paint0_linear" x1="56.7338" y1="15.4227" x2="43.9551" y2="88.0194" gradientUnits="userSpaceOnUse">
<stop stop-color="#F8DE8E"/>
<stop offset="1" stop-color="#E6B515"/>
</linearGradient>
</defs>
</svg>
