<svg width="327" height="194" viewBox="0 0 327 194" fill="none" xmlns="http://www.w3.org/2000/svg">
<path fill-rule="evenodd" clip-rule="evenodd" d="M282.602 2.71709H44.3979C24.142 2.71709 7.72137 8.49537 7.72137 15.6232V178.377C7.72137 185.505 24.142 191.283 44.3979 191.283H282.602C302.858 191.283 319.279 185.505 319.279 178.377V15.6233C319.279 8.49537 302.858 2.71709 282.602 2.71709ZM44.3979 0C19.8776 0 0 6.99476 0 15.6232V178.377C0 187.005 19.8776 194 44.3979 194H282.602C307.122 194 327 187.005 327 178.377V15.6233C327 6.99477 307.122 0 282.602 0H44.3979Z" fill="#FBC37E"/>
</svg>
