<svg width="69" height="55" viewBox="0 0 69 55" fill="none" xmlns="http://www.w3.org/2000/svg">
<g clip-path="url(#clip0)">
<path d="M52.2705 18.807C51.6879 20.1323 51.07 21.4805 50.4371 22.8113C51.0789 21.4666 51.6825 20.1447 52.2705 18.807ZM53.0584 19.7217C50.5094 25.5673 47.3581 31.9399 44.3537 35.4722C44.1285 35.6904 33.5985 36.3684 23.5233 36.9806C24.0681 39.0366 24.8259 41.3562 26.0059 44.2754C30.9995 40.1431 37.9405 37.981 47.7129 40.2157C50.1566 37.4349 48.9612 32.9807 58.6758 28.1387C56.9595 24.5128 55.812 22.8763 53.0584 19.7217ZM49.8848 23.9342C49.3316 25.0659 48.775 26.1933 48.2001 27.26C48.7778 26.1927 49.3293 25.0664 49.8848 23.9342ZM23.1698 35.5898C26.6228 35.3796 28.6985 35.2414 31.987 35.0262C29.0863 35.2142 26.3262 35.3976 23.1698 35.5898ZM48.1074 27.4294C47.7941 28.0073 47.4756 28.5707 47.1584 29.1171C47.4767 28.5707 47.7928 28.0072 48.1074 27.4294ZM46.8208 29.6794C46.578 30.0866 46.3367 30.49 46.0929 30.8735C46.3362 30.4919 46.5782 30.0845 46.8208 29.6794ZM45.3391 31.9993C45.206 32.1914 45.0739 32.3998 44.9413 32.5839C45.074 32.4002 45.2064 32.1924 45.3391 31.9993ZM42.0456 34.3123C43.0878 34.2183 43.7192 34.1451 43.7691 34.0967C43.7189 34.1457 43.0116 34.2233 42.0456 34.3123ZM26.3792 12.2612C25.6429 14.5247 24.2672 16.8509 22.575 19.2089C25.7041 18.1321 27.8928 20.0341 30.4101 20.8958C30.9874 20.2673 31.7658 19.7307 32.6395 19.3587C33.7683 18.8792 34.9739 18.709 35.9911 18.8856C37.0083 19.0623 37.7539 19.5712 38.064 20.3005C38.3739 21.0299 38.2229 21.92 37.6441 22.7749C37.0653 23.6299 36.1061 24.3797 34.9775 24.8596C33.8487 25.3391 32.6431 25.5093 31.6259 25.3327C30.6087 25.1561 29.8631 24.6471 29.553 23.9178C29.34 23.4116 29.3467 22.8239 29.5724 22.2193C27.1501 21.6654 24.8041 20.9912 21.2366 22.2387C20.8068 21.596 20.7214 20.8063 20.9327 19.8913L17.7269 22.4332C17.7263 22.4334 17.7308 22.4479 17.7301 22.4482C15.3914 22.9914 13.5646 23.0457 11.4511 23.3567C9.26012 23.6793 6.75581 24.2954 3.0398 26.0532L2.9593 26.0874L2.94818 26.1656C2.91236 26.4337 2.8918 26.6987 2.88369 26.9605C2.75321 27.0322 2.6343 27.0664 2.49463 27.1258C1.33868 28.0002 2.15213 28.3165 2.78306 28.684C2.88369 28.6183 2.97387 28.5735 3.0734 28.5099C3.15878 28.7862 3.26835 29.0554 3.42391 29.3124C3.99341 30.2535 5.06975 31.0421 6.90949 31.5954L6.98521 31.6171L7.05387 31.5699C10.9763 28.7536 14.6325 26.4771 18.4113 23.9618L18.4988 23.9067L18.4901 23.8712L19.0113 23.6888C15.3695 27.9482 11.1158 32.269 7.49726 36.526C7.49726 36.526 43.3751 34.4805 43.7701 34.0992C50.2593 26.4703 57.5675 5.50367 57.5675 5.50367C47.1822 7.76245 39.1896 11.4114 26.3802 12.2637L26.3792 12.2612ZM5.76282 25.1555C8.08022 24.2522 9.85775 23.85 11.4653 23.6135C13.551 23.3066 15.3997 23.2409 17.7646 22.6931C17.7716 22.7506 17.7806 22.8105 17.7879 22.8673C13.0051 24.1054 9.64306 23.9156 3.2074 26.8125C3.21791 26.6227 3.2275 26.4332 3.25177 26.2387C4.15744 25.8129 4.99007 25.4559 5.76272 25.1552L5.76282 25.1555ZM6.95868 26.4263C10.8809 24.7593 14.1583 24.5596 17.9013 23.298C17.9522 23.4331 18.0544 23.6122 18.1645 23.7981L18.1682 23.8145C14.4522 26.2858 10.8402 28.5428 6.96876 31.3174C5.21914 30.7781 4.21281 30.0396 3.68664 29.1702C3.52844 28.9088 3.42424 28.63 3.34523 28.3447C4.61562 27.5512 5.82219 26.9096 6.95812 26.4254L6.95868 26.4263Z" fill="#FBC37E"/>
</g>
<defs>
<clipPath id="clip0">
<rect width="60.0095" height="34.0719" fill="white" transform="translate(0 23.4727) rotate(-23.026)"/>
</clipPath>
</defs>
</svg>
