<svg width="60" height="94" viewBox="0 0 60 94" fill="none" xmlns="http://www.w3.org/2000/svg">
<g id="icc-logo">
<path id="large" fill-rule="evenodd" clip-rule="evenodd" d="M8.72154 0C14.4867 1.87275 26.061 8.15198 26.2373 18.2869L8.72154 29.3031C12.3202 23.2074 17.3582 8.81295 8.72154 0ZM7.39998 33.1587L25.797 21.5917L28.2206 25.3372C28.8081 26.4388 29.146 29.281 25.797 31.8368C20.6561 39.0707 10.6167 57.5926 11.5861 73.8085C12.0635 80.2346 19.3415 92.9766 44.6347 92.536C21.721 96.9792 -17.5407 92.2716 8.72193 37.8957C9.16258 37.2347 9.5151 35.3619 7.39998 33.1587Z" fill="url(#paint0_linear)"/>
<path id="small" d="M43.203 63.0122C53.6904 54.728 47.5728 46.1207 43.203 42.8525C45.5164 48.4708 40.1185 55.7415 34.9409 58.7159C30.7988 61.0954 29.9101 66.0233 29.9836 68.1898C31.3937 85.8157 49.1518 83.3921 57.8545 79.9771C58.2071 82.7973 54.9169 86.8806 53.2277 88.5697C57.5241 86.036 61.7102 78.545 59.2867 76.8926C57.3478 75.5706 57.7444 74.1385 58.185 73.5877C57.0834 74.1753 55.2107 75.5706 56.5326 76.4519C57.8545 77.3332 57.8178 78.2145 57.6342 78.545C52.2583 82.3346 47.2423 81.0053 45.4062 79.867C36.3289 74.0504 40.1552 66.2069 43.203 63.0122Z" fill="url(#paint1_linear)"/>
<path id="middle" d="M32.8474 54.6405C44.7449 43.1836 37.8047 32.9753 32.8474 29.3032C32.8474 31.5799 32.0322 36.9044 28.7714 39.9889C25.5106 43.0735 21.8679 48.5816 20.3991 50.895C11.1455 68.609 19.8115 81.0059 25.3564 85.0452C40.9553 93.8581 52.7867 86.4406 56.7525 81.6302C43.3568 88.7687 33.6185 83.5029 30.4238 79.9777C26.2744 76.3057 20.9499 66.0973 32.8474 54.6405Z" fill="url(#paint2_linear)"/>
</g>
<defs>
<linearGradient id="paint0_linear" x1="42.2051" y1="15.4227" x2="25.4341" y2="86.3004" gradientUnits="userSpaceOnUse">
<stop stop-color="#F8DE8E"/>
<stop offset="1" stop-color="#E6B515"/>
</linearGradient>
<linearGradient id="paint1_linear" x1="44.9897" y1="42.8525" x2="44.9897" y2="88.5697" gradientUnits="userSpaceOnUse">
<stop stop-color="#FAE07B"/>
<stop offset="1" stop-color="#E8B118"/>
</linearGradient>
<linearGradient id="paint2_linear" x1="36.5417" y1="29.3032" x2="36.5417" y2="89.1462" gradientUnits="userSpaceOnUse">
<stop stop-color="#FAE07B"/>
<stop offset="1" stop-color="#E8B118"/>
</linearGradient>
</defs>
</svg>
