<svg width="28" height="44" viewBox="0 0 28 44" fill="none" xmlns="http://www.w3.org/2000/svg">
<path fill-rule="evenodd" clip-rule="evenodd" d="M4.07012 0C6.76053 0.873955 12.1619 3.80428 12.2442 8.53392L4.07012 13.6748C5.74948 10.8302 8.10059 4.11273 4.07012 0ZM3.45334 15.4741L12.0387 10.0762L13.1697 11.8241C13.4439 12.3382 13.6015 13.6645 12.0387 14.8572C9.63958 18.2331 4.95449 26.8767 5.40689 34.4441C5.62966 37.443 9.02609 43.3893 20.8296 43.1837C10.1365 45.2572 -8.18569 43.0603 4.07025 17.6847C4.27589 17.3763 4.4404 16.5023 3.45334 15.4741ZM15.3289 25.499C20.8811 20.1524 17.6423 15.3885 15.3289 13.6749C15.3289 14.7373 14.9485 17.2221 13.4267 18.6616C11.905 20.101 10.2051 22.6715 9.51964 23.7511C5.20127 32.0177 9.24546 37.8029 11.8331 39.6879C19.1126 43.8006 24.6339 40.3391 26.4847 38.0942C20.2333 41.4255 15.6887 38.9682 14.1979 37.3231C12.2615 35.6095 9.77669 30.8455 15.3289 25.499ZM20.1616 19.9981C22.2008 21.5233 25.0557 25.54 20.1616 29.406C18.7392 30.8969 16.9536 34.5572 21.1897 37.2716C22.0466 37.8028 24.3874 38.4232 26.8962 36.6547C26.9818 36.5005 26.999 36.0892 26.3821 35.6779C25.7652 35.2666 26.6391 34.6155 27.1532 34.3413C26.9476 34.5983 26.7625 35.2666 27.6673 35.8836C28.7983 36.6547 26.8448 40.1505 24.8398 41.3329C25.6281 40.5446 27.1635 38.6391 26.999 37.323C22.9377 38.9167 14.6505 40.0477 13.9925 31.8222C13.9582 30.8112 14.3729 28.5115 16.3059 27.401C18.7221 26.013 21.2412 22.62 20.1616 19.9981Z" fill="url(#paint0_linear)"/>
<defs>
<linearGradient id="paint0_linear" x1="26.476" y1="7.19728" x2="20.5126" y2="41.0759" gradientUnits="userSpaceOnUse">
<stop stop-color="#F8DE8E"/>
<stop offset="1" stop-color="#E6B515"/>
</linearGradient>
</defs>
</svg>
