<svg width="1649" height="180" viewBox="0 0 1649 180" fill="none" xmlns="http://www.w3.org/2000/svg">
<path fill-rule="evenodd" clip-rule="evenodd" d="M591.899 27H576C592.002 56.7004 630.194 55.7484 647.29 51.5599C650.162 101.365 702.852 100.489 728.838 93.8258C736.018 122.955 752.943 128.096 779.1 134.949C805.257 141.803 813.976 157.796 818.592 168.648C822.285 177.33 825.943 179.5 827.311 179.5C828.679 179.5 832.337 177.33 836.03 168.648C840.646 157.796 849.365 141.803 875.522 134.949C901.678 128.096 918.603 122.955 925.784 93.8258C951.77 100.489 1004.46 101.365 1007.33 51.5599C1024.43 55.7484 1062.62 56.7004 1078.62 27H1062.72C1061.87 32.7116 1055.44 43.4494 1036.57 40.7079C1035.37 39.1848 1033.8 35.7959 1037.08 34.4251H1055.54V27H1051.95V30.427H1038.62V27H1035.03C1034 29.0943 1031.33 32.0262 1028.87 27H1023.23C1022.21 28.9039 1019.54 31.5693 1017.08 27H1012.46V29.2846H1000.15V27H995.535V34.4251H1015.54C1016.56 35.7578 1018 38.8801 1015.54 40.7079H995.535V50.9888L990.406 48.133V27H981.688L970.404 34.9963L964.25 31.5693L969.378 27H961.685C961.001 27.9519 959.326 29.2846 958.095 27H949.376L955.018 31.5693L949.376 34.9963L937.58 27H929.887V47.5618L923.732 51.5599V41.8502H904.243C903.046 40.3271 901.371 36.7097 904.243 34.4251H922.706V27H918.603V29.8558H906.294V27H902.191C900.995 28.9039 898.191 31.5693 896.55 27H889.882C888.856 28.9039 886.292 31.5693 884.24 27H879.625V29.8558H867.828V27H862.7V34.4251H882.702C883.728 35.7578 885.164 39.1086 882.702 41.8502H862.7V50.9888L857.571 47.5618V27H848.852L837.056 34.9963L831.414 31.5693L837.056 27H828.85L827.311 28.7135L825.772 27H817.566L823.208 31.5693L817.566 34.9963L805.77 27H797.051V47.5618L791.922 50.9888V41.8502H771.92C769.458 39.1086 770.894 35.7578 771.92 34.4251H791.922V27H786.793V29.8558H774.997V27H770.381C768.33 31.5693 765.765 28.9039 764.74 27H758.072C756.431 31.5693 753.627 28.9039 752.43 27H748.327V29.8558H736.018V27H731.915V34.4251H750.379C753.251 36.7097 751.576 40.3271 750.379 41.8502H730.89V51.5599L724.735 47.5618V27H717.042L705.246 34.9963L699.604 31.5693L705.246 27H696.527C695.296 29.2846 693.62 27.9519 692.936 27H685.243L690.372 31.5693L684.218 34.9963L672.934 27H664.215V48.133L659.086 50.9888V40.7079H639.084C636.622 38.8801 638.058 35.7578 639.084 34.4251H659.086V27H654.471V29.2846H642.161V27H637.546C635.084 31.5693 632.417 28.9039 631.391 27H625.749C623.287 32.0262 620.62 29.0943 619.595 27H616.005V30.427H602.67V27H599.08V34.4251H617.543C620.826 35.7959 619.253 39.1848 618.056 40.7079C599.182 43.4494 592.754 32.7116 591.899 27ZM827.311 33.8541L827.311 33.8539L822.182 37.8521L827.311 42.0061L832.44 37.8521L827.311 33.8539L827.311 33.8545V33.8541ZM827.311 48.1333L827.311 48.133L821.669 52.1311L827.311 62.412L827.311 62.4117V62.4112L827.311 62.412L832.953 52.1311L827.311 48.133L827.311 48.1338V48.1333ZM827.311 74.9778L827.311 74.9775L826.285 77.2622H823.208L825.259 80.6891L823.208 84.1161H826.285L827.311 85.8296L827.311 85.8294V85.8289L827.311 85.8296L828.337 84.1161H831.414L829.363 80.6891L831.414 77.2622H828.337L827.311 74.9775L827.311 74.9783V74.9778ZM827.311 165.792L827.311 165.792L829.363 162.936L827.311 160.652L827.311 160.652V160.652L827.311 160.652L825.259 162.936L827.311 165.792L827.311 165.792ZM827.311 148.086V148.085L827.311 148.086L833.466 137.234L827.311 133.236L827.311 133.237V133.236L827.311 133.236L821.156 137.234L827.311 148.086L827.311 148.086ZM827.311 127.524L827.311 127.524L832.44 123.526L827.311 119.528L827.311 119.529V119.528L827.311 119.528L822.182 123.526L827.311 127.524L827.311 127.524ZM827.311 114.387L827.311 114.388L832.953 109.818L827.311 97.824L827.311 97.8241L827.311 97.824L821.669 109.818L827.311 114.388L827.311 114.387ZM761.149 31.5693L759.611 34.4251H756.02L758.585 37.8521L756.02 40.7079H760.124L761.149 44.706L763.201 40.7079H766.791L764.227 37.8521L766.791 34.4251H763.714L761.662 30.427L761.149 31.5693ZM626.775 34.4251L628.314 30.9981L630.365 34.4251H633.442L631.904 38.4232L632.929 41.279H629.339L628.314 43.5637L626.775 40.7079H623.185L625.236 38.4232L623.185 34.4251H626.775ZM669.344 44.1348V32.1404L680.114 38.4232L669.344 44.1348ZM658.573 57.8427L664.215 54.4157V61.2697L658.573 64.6966V57.8427ZM684.217 41.279L669.344 50.9888V57.8427L677.55 53.8446L687.808 72.6929L690.885 72.1217L692.423 69.2659L682.679 49.8464L689.859 44.706L684.217 41.279ZM661.138 69.2659L664.728 66.4101V72.6929L661.138 69.2659ZM675.498 59.5562L668.831 64.1255L669.344 72.6929H682.679L675.498 59.5562ZM670.882 78.4045C676.353 82.2122 686.884 87.5431 685.243 78.4045H670.882ZM694.988 74.9775L693.449 77.8333H690.372L692.936 80.6891L690.372 83.5449H693.449L694.988 86.9719L696.526 84.1161H700.117L697.552 80.6891L700.117 77.8333H696.526L694.988 74.9775ZM687.808 52.1311L694.988 47.5618L701.142 51.5599L694.988 64.1255L687.808 52.1311ZM694.988 33.8539L689.346 37.8521L694.988 41.8502L700.117 37.8521L694.988 33.8539ZM700.117 44.706L705.758 40.7079L721.145 50.9888V58.4139L712.939 53.2734L702.681 72.1217L697.552 70.9794L698.065 68.1236L707.297 50.9888L700.117 44.706ZM720.119 31.5693L710.374 37.8521L720.119 44.706V31.5693ZM714.477 60.1273L707.81 72.1217L720.632 72.6929V64.1255L714.477 60.1273ZM704.733 84.1161V77.8333H724.735V65.839L730.889 70.9794V83.5449L704.733 84.1161ZM730.889 57.2715L725.248 53.8446V61.8408L730.889 64.6966V57.2715ZM735.505 53.8446V46.4195H748.84L741.66 58.985L735.505 53.8446ZM735.505 60.6985L743.198 64.6966L752.943 46.4195L758.072 46.9906L757.559 51.5599L748.84 68.6948L756.533 74.4064L750.892 77.8333L735.505 67.5524V60.6985ZM735.505 73.264V81.2603L738.583 86.4008L746.276 81.2603L735.505 73.264ZM755.508 80.6891L761.662 77.2622L767.304 80.6891L761.149 84.1161L755.508 80.6891ZM737.557 92.1124L750.379 84.1161L757.046 86.9719L748.84 92.6835L758.585 110.961L757.559 114.959H753.456L743.711 96.1105L738.583 98.3951L737.557 92.1124ZM761.662 90.3989L754.995 94.397L761.149 106.391L767.817 94.9682L761.662 90.3989ZM766.278 86.9719L772.433 84.1161L787.306 93.8258V100.68L779.1 95.5393L769.355 115.53C767.646 116.101 764.124 116.101 763.714 111.532L773.971 92.6835L766.278 86.9719ZM787.306 106.963L780.639 101.822L774.997 114.959H787.306V106.963ZM792.435 120.099V109.818L797.051 113.816V131.522L770.894 120.099H792.435ZM791.922 105.249V96.6816L797.051 99.5375V108.105L791.922 105.249ZM776.536 80.6891L787.306 73.264V88.1142L776.536 80.6891ZM773.971 68.6948L766.278 74.4064L773.458 78.4045L787.306 68.6948V60.1273L779.613 65.2678L769.355 45.8483H766.278L763.714 48.7041L773.971 68.6948ZM761.149 54.4157L754.995 66.4101L761.149 71.5506L767.304 66.4101L761.149 54.4157ZM787.306 46.4195H774.997L781.664 58.985L787.306 55.5581V46.4195ZM791.922 57.2715V64.6966L797.564 61.2697V54.4157L791.922 57.2715ZM791.922 71.5506L797.051 66.9813V77.8333L818.079 78.4045C819.72 80.2322 818.763 82.593 818.079 83.5449H797.051V94.9682L791.922 90.97V71.5506ZM802.692 31.5693V44.706L812.95 37.8521L802.692 31.5693ZM802.18 50.9888L816.54 41.279L823.721 44.706L815.514 50.4176L824.233 67.5524V72.6929H820.13L809.873 53.8446L802.692 58.4139L802.18 50.9888ZM807.821 59.5562L801.667 64.6966V72.6929H815.002L807.821 59.5562ZM801.667 88.6854H815.002L808.847 101.822L801.667 96.6816V88.6854ZM802.18 110.961V102.964L809.873 107.534L820.13 88.6854C823.413 87.3146 824.917 91.1604 825.259 93.2547L815.514 110.961L823.721 116.672L817.566 120.67L802.18 110.961ZM802.18 117.243V129.809L812.95 123.526L802.18 117.243ZM817.566 126.382L804.231 134.949C813.258 139.519 821.327 151.323 824.233 156.654L815.514 134.949L823.208 130.38L817.566 126.382ZM893.473 31.5693L895.011 34.4251H898.602L896.037 37.8521L898.602 40.7079H894.499L893.473 44.706L891.421 40.7079H887.831L890.396 37.8521L887.831 34.4251H890.908L892.96 30.427L893.473 31.5693ZM1027.85 34.4251L1026.31 30.9981L1024.26 34.4251H1021.18L1022.72 38.4232L1021.69 41.279H1025.28L1026.31 43.5637L1027.85 40.7079H1031.44L1029.39 38.4232L1031.44 34.4251H1027.85ZM985.278 44.1348V32.1404L974.508 38.4232L985.278 44.1348ZM996.049 57.8427L990.407 54.4157V61.2697L996.049 64.6966V57.8427ZM970.405 41.279L985.278 50.9888V57.8427L977.072 53.8446L966.815 72.6929L963.737 72.1217L962.199 69.2659L971.943 49.8464L964.763 44.706L970.405 41.279ZM993.484 69.2659L989.894 66.4101V72.6929L993.484 69.2659ZM979.124 59.5562L985.791 64.1255L985.278 72.6929H971.943L979.124 59.5562ZM983.74 78.4045C978.269 82.2122 967.738 87.5431 969.379 78.4045H983.74ZM959.634 74.9775L961.173 77.8333H964.25L961.686 80.6891L964.25 83.5449H961.173L959.634 86.9719L958.096 84.1161H954.505L957.07 80.6891L954.505 77.8333H958.096L959.634 74.9775ZM966.815 52.1311L959.634 47.5618L953.48 51.5599L959.634 64.1255L966.815 52.1311ZM959.634 33.8539L965.276 37.8521L959.634 41.8502L954.505 37.8521L959.634 33.8539ZM954.505 44.706L948.864 40.7079L933.477 50.9888V58.4139L941.683 53.2734L951.941 72.1217L957.07 70.9794L956.557 68.1236L947.325 50.9888L954.505 44.706ZM934.503 31.5693L944.248 37.8521L934.503 44.706V31.5693ZM940.145 60.1273L946.812 72.1217L933.99 72.6929V64.1255L940.145 60.1273ZM949.89 84.1161V77.8333H929.887V65.839L923.733 70.9794V83.5449L949.89 84.1161ZM923.733 57.2715L929.374 53.8446V61.8408L923.733 64.6966V57.2715ZM919.117 53.8446V46.4195H905.782L912.962 58.985L919.117 53.8446ZM919.117 60.6985L911.424 64.6966L901.679 46.4195L896.55 46.9906L897.063 51.5599L905.782 68.6948L898.089 74.4064L903.73 77.8333L919.117 67.5524V60.6985ZM919.117 73.264V81.2603L916.04 86.4008L908.346 81.2603L919.117 73.264ZM892.96 77.2622L887.318 80.6891L893.473 84.1161L899.115 80.6891L892.96 77.2622ZM917.065 92.1124L904.243 84.1161L897.576 86.9719L905.782 92.6835L896.037 110.961L897.063 114.959H901.166L910.911 96.1105L916.04 98.3951L917.065 92.1124ZM892.96 90.3989L899.627 94.397L893.473 106.391L886.805 94.9682L892.96 90.3989ZM882.189 84.1161L867.316 93.8258V100.68L875.522 95.5393L885.267 115.53C886.976 116.101 890.498 116.101 890.908 111.532L880.651 92.6835L888.344 86.9719L882.189 84.1161ZM867.316 106.963L873.983 101.822L879.625 114.959H867.316V106.963ZM862.187 120.099V109.818L857.571 113.816V131.522L883.728 120.099H862.187ZM862.7 105.249V96.6816L857.571 99.5375V108.105L862.7 105.249ZM878.086 80.6891L867.316 73.264V88.1142L878.086 80.6891ZM880.651 68.6948L888.344 74.4064L881.164 78.4045L867.316 68.6948V60.1273L875.009 65.2678L885.267 45.8483H888.344L890.908 48.7041L880.651 68.6948ZM893.473 54.4157L899.627 66.4101L893.473 71.5506L887.318 66.4101L893.473 54.4157ZM867.316 46.4195H879.625L872.958 58.985L867.316 55.5581V46.4195ZM862.7 57.2715V64.6966L857.058 61.2697V54.4157L862.7 57.2715ZM862.7 71.5506L857.571 66.9813V77.8333L836.543 78.4045C834.902 80.2322 835.859 82.593 836.543 83.5449H857.571V94.9682L862.7 90.97V71.5506ZM851.93 31.5693V44.706L841.672 37.8521L851.93 31.5693ZM852.443 50.9888L838.082 41.279L830.902 44.706L839.108 50.4176L830.389 67.5524V72.6929H834.492L844.749 53.8446L851.93 58.4139L852.443 50.9888ZM846.801 59.5562L852.955 64.6966V72.6929H839.62L846.801 59.5562ZM852.955 88.6854H839.62L845.775 101.822L852.955 96.6816V88.6854ZM852.443 110.961V102.964L844.749 107.534L834.492 88.6854C831.209 87.3146 829.705 91.1604 829.363 93.2547L839.108 110.961L830.902 116.672L837.056 120.67L852.443 110.961ZM852.443 117.243V129.809L841.672 123.526L852.443 117.243ZM837.056 126.382L850.391 134.949C841.364 139.519 833.295 151.323 830.389 156.654L839.108 134.949L831.414 130.38L837.056 126.382Z" fill="#B1875C"/>
<line x1="27" y1="24" x2="1627" y2="24" stroke="#B79671" stroke-width="6"/>
<path d="M44 22C44 34.1503 34.1503 44 22 44C9.84974 44 0 34.1503 0 22C0 9.84974 9.84974 0 22 0C34.1503 0 44 9.84974 44 22Z" fill="#B68F62"/>
<path d="M381 22C381 34.1503 371.15 44 359 44C346.85 44 337 34.1503 337 22C337 9.84974 346.85 0 359 0C371.15 0 381 9.84974 381 22Z" fill="#B68F62"/>
<path d="M1260 22C1260 34.1503 1250.15 44 1238 44C1225.85 44 1216 34.1503 1216 22C1216 9.84974 1225.85 0 1238 0C1250.15 0 1260 9.84974 1260 22Z" fill="#B68F62"/>
<path d="M1649 22C1649 34.1503 1639.15 44 1627 44C1614.85 44 1605 34.1503 1605 22C1605 9.84974 1614.85 0 1627 0C1639.15 0 1649 9.84974 1649 22Z" fill="#B68F62"/>
<path d="M589 22C589 28.0751 584.075 33 578 33C571.925 33 567 28.0751 567 22C567 15.9249 571.925 11 578 11C584.075 11 589 15.9249 589 22Z" fill="#B68F62"/>
<path d="M1087 22C1087 28.0751 1082.08 33 1076 33C1069.92 33 1065 28.0751 1065 22C1065 15.9249 1069.92 11 1076 11C1082.08 11 1087 15.9249 1087 22Z" fill="#B68F62"/>
</svg>
